<mxfile host="Electron" agent="Mozilla/5.0 (Windows NT 10.0; Win64; x64) AppleWebKit/537.36 (KHTML, like Gecko) draw.io/24.7.8 Chrome/128.0.6613.36 Electron/32.0.1 Safari/537.36" version="24.7.8">
  <diagram id="2RAkf9iS2bYrb-5zrusB" name="Page-1">
    <mxGraphModel dx="934" dy="655" grid="1" gridSize="10" guides="1" tooltips="1" connect="1" arrows="1" fold="1" page="1" pageScale="1" pageWidth="850" pageHeight="1100" math="0" shadow="0">
      <root>
        <mxCell id="0" />
        <mxCell id="1" parent="0" />
        <mxCell id="EpLoNu7SxfJ4iQwhgqlz-1" value="&lt;h1&gt;Assurance Case&lt;/h1&gt;&lt;p&gt;The network logs are secure against manipulation&lt;/p&gt;" style="text;html=1;strokeColor=none;fillColor=none;spacing=5;spacingTop=-20;whiteSpace=wrap;overflow=hidden;rounded=0;" parent="1" vertex="1">
          <mxGeometry x="20" y="20" width="160" height="110" as="geometry" />
        </mxCell>
        <mxCell id="EpLoNu7SxfJ4iQwhgqlz-4" style="edgeStyle=orthogonalEdgeStyle;rounded=0;orthogonalLoop=1;jettySize=auto;html=1;exitX=1;exitY=0.5;exitDx=0;exitDy=0;entryX=0;entryY=0.5;entryDx=0;entryDy=0;endArrow=block;endFill=1;" parent="1" source="EpLoNu7SxfJ4iQwhgqlz-2" target="EpLoNu7SxfJ4iQwhgqlz-3" edge="1">
          <mxGeometry relative="1" as="geometry" />
        </mxCell>
        <mxCell id="EpLoNu7SxfJ4iQwhgqlz-6" value="" style="edgeStyle=orthogonalEdgeStyle;rounded=0;orthogonalLoop=1;jettySize=auto;html=1;endArrow=block;endFill=1;curved=1;exitX=0.5;exitY=1;exitDx=0;exitDy=0;" parent="1" source="EpLoNu7SxfJ4iQwhgqlz-2" target="EpLoNu7SxfJ4iQwhgqlz-5" edge="1">
          <mxGeometry relative="1" as="geometry" />
        </mxCell>
        <mxCell id="EpLoNu7SxfJ4iQwhgqlz-37" style="edgeStyle=orthogonalEdgeStyle;curved=1;rounded=0;orthogonalLoop=1;jettySize=auto;html=1;exitX=0.5;exitY=1;exitDx=0;exitDy=0;endArrow=block;endFill=1;" parent="1" source="f0J4ps2NvKq0wRHhP7px-2" target="EpLoNu7SxfJ4iQwhgqlz-36" edge="1">
          <mxGeometry relative="1" as="geometry" />
        </mxCell>
        <mxCell id="EpLoNu7SxfJ4iQwhgqlz-2" value="&lt;b&gt;Top-Claim C1:&lt;br&gt;&lt;/b&gt;The network logs are secure against manipulation" style="rounded=0;whiteSpace=wrap;html=1;" parent="1" vertex="1">
          <mxGeometry x="345" y="10" width="125" height="60" as="geometry" />
        </mxCell>
        <mxCell id="EpLoNu7SxfJ4iQwhgqlz-3" value="&lt;b&gt;Context: CT1&lt;/b&gt;&lt;br&gt;The network logs store the activity the alerts for unusual activity is based off of" style="rounded=1;whiteSpace=wrap;html=1;arcSize=30;" parent="1" vertex="1">
          <mxGeometry x="570" y="50" width="160" height="70" as="geometry" />
        </mxCell>
        <mxCell id="EpLoNu7SxfJ4iQwhgqlz-9" style="edgeStyle=orthogonalEdgeStyle;curved=1;rounded=0;orthogonalLoop=1;jettySize=auto;html=1;endArrow=block;endFill=1;" parent="1" source="EpLoNu7SxfJ4iQwhgqlz-5" target="EpLoNu7SxfJ4iQwhgqlz-8" edge="1">
          <mxGeometry relative="1" as="geometry" />
        </mxCell>
        <mxCell id="EpLoNu7SxfJ4iQwhgqlz-5" value="Rebuttal R1: Anyone with server access can manipulate the log file" style="shape=note;whiteSpace=wrap;html=1;backgroundOutline=1;darkOpacity=0.05;size=17;fillColor=#FFF2CC;" parent="1" vertex="1">
          <mxGeometry x="116.25" y="160" width="150" height="70" as="geometry" />
        </mxCell>
        <mxCell id="EpLoNu7SxfJ4iQwhgqlz-13" style="edgeStyle=orthogonalEdgeStyle;curved=1;rounded=0;orthogonalLoop=1;jettySize=auto;html=1;exitX=0.5;exitY=1;exitDx=0;exitDy=0;entryX=0.5;entryY=0;entryDx=0;entryDy=0;entryPerimeter=0;endArrow=block;endFill=1;" parent="1" source="EpLoNu7SxfJ4iQwhgqlz-2" target="f0J4ps2NvKq0wRHhP7px-1" edge="1">
          <mxGeometry relative="1" as="geometry">
            <mxPoint x="460" y="390" as="targetPoint" />
          </mxGeometry>
        </mxCell>
        <mxCell id="EpLoNu7SxfJ4iQwhgqlz-8" value="&lt;b&gt;Sub-Claim C2:&lt;br&gt;&lt;/b&gt;Logs access is configured as Linux permissions level &quot;600&quot; (only edited / deleted by creator Suricata)" style="rounded=0;whiteSpace=wrap;html=1;" parent="1" vertex="1">
          <mxGeometry x="70" y="270" width="202.5" height="60" as="geometry" />
        </mxCell>
        <mxCell id="EpLoNu7SxfJ4iQwhgqlz-20" style="edgeStyle=orthogonalEdgeStyle;curved=1;rounded=0;orthogonalLoop=1;jettySize=auto;html=1;exitX=0.5;exitY=1;exitDx=0;exitDy=0;entryX=0.5;entryY=0;entryDx=0;entryDy=0;entryPerimeter=0;endArrow=block;endFill=1;" parent="1" source="EpLoNu7SxfJ4iQwhgqlz-8" target="EpLoNu7SxfJ4iQwhgqlz-28" edge="1">
          <mxGeometry relative="1" as="geometry" />
        </mxCell>
        <mxCell id="EpLoNu7SxfJ4iQwhgqlz-23" style="edgeStyle=orthogonalEdgeStyle;curved=1;rounded=0;orthogonalLoop=1;jettySize=auto;html=1;entryX=0.5;entryY=0;entryDx=0;entryDy=0;endArrow=block;endFill=1;" parent="1" source="EpLoNu7SxfJ4iQwhgqlz-18" target="EpLoNu7SxfJ4iQwhgqlz-22" edge="1">
          <mxGeometry relative="1" as="geometry" />
        </mxCell>
        <mxCell id="EpLoNu7SxfJ4iQwhgqlz-18" value="&lt;b&gt;Evidence E1&lt;/b&gt;:&lt;div&gt;Support for Linux Security Module Landlock&lt;/div&gt;" style="ellipse;whiteSpace=wrap;html=1;aspect=fixed;fillColor=#ffffff;rounded=0;" parent="1" vertex="1">
          <mxGeometry x="20" y="600" width="100" height="100" as="geometry" />
        </mxCell>
        <mxCell id="EpLoNu7SxfJ4iQwhgqlz-25" style="edgeStyle=orthogonalEdgeStyle;curved=1;rounded=0;orthogonalLoop=1;jettySize=auto;html=1;entryX=0.5;entryY=0;entryDx=0;entryDy=0;endArrow=block;endFill=1;" parent="1" source="EpLoNu7SxfJ4iQwhgqlz-19" target="EpLoNu7SxfJ4iQwhgqlz-24" edge="1">
          <mxGeometry relative="1" as="geometry" />
        </mxCell>
        <mxCell id="EpLoNu7SxfJ4iQwhgqlz-19" value="&lt;b&gt;Evidence E3:&lt;/b&gt;&lt;br&gt;Enable Address Space Layout Randomization&amp;nbsp;" style="ellipse;whiteSpace=wrap;html=1;aspect=fixed;fillColor=#ffffff;rounded=0;" parent="1" vertex="1">
          <mxGeometry x="245" y="610" width="100" height="100" as="geometry" />
        </mxCell>
        <mxCell id="EpLoNu7SxfJ4iQwhgqlz-22" value="" style="ellipse;whiteSpace=wrap;html=1;aspect=fixed;fillColor=#CCCCCC;" parent="1" vertex="1">
          <mxGeometry x="55" y="730" width="30" height="30" as="geometry" />
        </mxCell>
        <mxCell id="EpLoNu7SxfJ4iQwhgqlz-24" value="" style="ellipse;whiteSpace=wrap;html=1;aspect=fixed;fillColor=#CCCCCC;" parent="1" vertex="1">
          <mxGeometry x="280" y="740" width="30" height="30" as="geometry" />
        </mxCell>
        <mxCell id="EpLoNu7SxfJ4iQwhgqlz-28" value="&lt;b&gt;Undermine UM1:&lt;/b&gt; Unless the permissions configs can be edited" style="shape=note;whiteSpace=wrap;html=1;backgroundOutline=1;darkOpacity=0.05;size=17;fillColor=#A9C4EB;" parent="1" vertex="1">
          <mxGeometry x="30" y="390" width="140" height="60" as="geometry" />
        </mxCell>
        <mxCell id="EpLoNu7SxfJ4iQwhgqlz-36" value="&lt;b&gt;Inference Rule IR1: &lt;/b&gt;If the logs are replicated off-device then it&#39;s more secure" style="shape=process;whiteSpace=wrap;html=1;backgroundOutline=1;fillColor=#A9C4EB;size=0.05555555555555555;" parent="1" vertex="1">
          <mxGeometry x="330" y="390" width="180" height="60" as="geometry" />
        </mxCell>
        <mxCell id="f0J4ps2NvKq0wRHhP7px-1" value="Rebuttal R2: Logs can be lost if a server crash (forced by manipulation)" style="shape=note;whiteSpace=wrap;html=1;backgroundOutline=1;darkOpacity=0.05;size=17;fillColor=#FFF2CC;" vertex="1" parent="1">
          <mxGeometry x="335" y="160" width="150" height="70" as="geometry" />
        </mxCell>
        <mxCell id="f0J4ps2NvKq0wRHhP7px-2" value="&lt;b&gt;Sub-Claim C3:&lt;br&gt;&lt;/b&gt;Logs can configured with centralized (off-network) setup" style="rounded=0;whiteSpace=wrap;html=1;" vertex="1" parent="1">
          <mxGeometry x="330" y="270" width="175" height="60" as="geometry" />
        </mxCell>
        <mxCell id="f0J4ps2NvKq0wRHhP7px-6" value="&lt;b&gt;Sub-Claim C4:&lt;br&gt;&lt;/b&gt;Suricata configuration file is secure" style="rounded=0;whiteSpace=wrap;html=1;" vertex="1" parent="1">
          <mxGeometry x="30" y="500" width="140" height="60" as="geometry" />
        </mxCell>
        <mxCell id="f0J4ps2NvKq0wRHhP7px-9" style="edgeStyle=orthogonalEdgeStyle;curved=1;rounded=0;orthogonalLoop=1;jettySize=auto;html=1;exitX=0.5;exitY=1;exitDx=0;exitDy=0;entryX=0.5;entryY=0;entryDx=0;entryDy=0;endArrow=block;endFill=1;exitPerimeter=0;" edge="1" parent="1" source="EpLoNu7SxfJ4iQwhgqlz-28" target="f0J4ps2NvKq0wRHhP7px-6">
          <mxGeometry relative="1" as="geometry">
            <mxPoint x="201" y="340" as="sourcePoint" />
            <mxPoint x="280" y="400" as="targetPoint" />
          </mxGeometry>
        </mxCell>
        <mxCell id="f0J4ps2NvKq0wRHhP7px-10" value="&lt;b&gt;Evidence E2&lt;/b&gt;:&lt;div&gt;Setting to prevent process creation&amp;nbsp; to limit forking exploits&lt;/div&gt;" style="ellipse;whiteSpace=wrap;html=1;aspect=fixed;fillColor=#ffffff;rounded=0;" vertex="1" parent="1">
          <mxGeometry x="130" y="610" width="100" height="100" as="geometry" />
        </mxCell>
        <mxCell id="f0J4ps2NvKq0wRHhP7px-11" value="&lt;b&gt;Evidence E4:&lt;/b&gt;&lt;br&gt;Installation on hardware without direct internet access&amp;nbsp;" style="ellipse;whiteSpace=wrap;html=1;aspect=fixed;fillColor=#ffffff;rounded=0;" vertex="1" parent="1">
          <mxGeometry x="360" y="610" width="100" height="100" as="geometry" />
        </mxCell>
        <mxCell id="f0J4ps2NvKq0wRHhP7px-13" style="edgeStyle=orthogonalEdgeStyle;curved=1;rounded=0;orthogonalLoop=1;jettySize=auto;html=1;entryX=0.5;entryY=0;entryDx=0;entryDy=0;endArrow=block;endFill=1;" edge="1" parent="1" target="f0J4ps2NvKq0wRHhP7px-14">
          <mxGeometry relative="1" as="geometry">
            <mxPoint x="180" y="710" as="sourcePoint" />
          </mxGeometry>
        </mxCell>
        <mxCell id="f0J4ps2NvKq0wRHhP7px-14" value="" style="ellipse;whiteSpace=wrap;html=1;aspect=fixed;fillColor=#CCCCCC;" vertex="1" parent="1">
          <mxGeometry x="165" y="740" width="30" height="30" as="geometry" />
        </mxCell>
        <mxCell id="f0J4ps2NvKq0wRHhP7px-15" style="edgeStyle=orthogonalEdgeStyle;curved=1;rounded=0;orthogonalLoop=1;jettySize=auto;html=1;entryX=0.5;entryY=0;entryDx=0;entryDy=0;endArrow=block;endFill=1;" edge="1" parent="1" target="f0J4ps2NvKq0wRHhP7px-16">
          <mxGeometry relative="1" as="geometry">
            <mxPoint x="410" y="710" as="sourcePoint" />
          </mxGeometry>
        </mxCell>
        <mxCell id="f0J4ps2NvKq0wRHhP7px-16" value="" style="ellipse;whiteSpace=wrap;html=1;aspect=fixed;fillColor=#CCCCCC;" vertex="1" parent="1">
          <mxGeometry x="395" y="740" width="30" height="30" as="geometry" />
        </mxCell>
        <mxCell id="f0J4ps2NvKq0wRHhP7px-17" style="edgeStyle=orthogonalEdgeStyle;curved=1;rounded=0;orthogonalLoop=1;jettySize=auto;html=1;exitX=0.5;exitY=1;exitDx=0;exitDy=0;entryX=0.5;entryY=0;entryDx=0;entryDy=0;endArrow=block;endFill=1;" edge="1" parent="1" source="f0J4ps2NvKq0wRHhP7px-6" target="EpLoNu7SxfJ4iQwhgqlz-18">
          <mxGeometry relative="1" as="geometry">
            <mxPoint x="110" y="460" as="sourcePoint" />
            <mxPoint x="110" y="510" as="targetPoint" />
          </mxGeometry>
        </mxCell>
        <mxCell id="f0J4ps2NvKq0wRHhP7px-18" style="edgeStyle=orthogonalEdgeStyle;curved=1;rounded=0;orthogonalLoop=1;jettySize=auto;html=1;exitX=0.5;exitY=1;exitDx=0;exitDy=0;entryX=0.5;entryY=0;entryDx=0;entryDy=0;endArrow=block;endFill=1;" edge="1" parent="1" source="f0J4ps2NvKq0wRHhP7px-6" target="f0J4ps2NvKq0wRHhP7px-10">
          <mxGeometry relative="1" as="geometry">
            <mxPoint x="110" y="570" as="sourcePoint" />
            <mxPoint x="80" y="610" as="targetPoint" />
          </mxGeometry>
        </mxCell>
        <mxCell id="f0J4ps2NvKq0wRHhP7px-19" style="edgeStyle=orthogonalEdgeStyle;curved=1;rounded=0;orthogonalLoop=1;jettySize=auto;html=1;entryX=0.5;entryY=0;entryDx=0;entryDy=0;endArrow=block;endFill=1;" edge="1" parent="1" target="EpLoNu7SxfJ4iQwhgqlz-19">
          <mxGeometry relative="1" as="geometry">
            <mxPoint x="100" y="560" as="sourcePoint" />
            <mxPoint x="190" y="620" as="targetPoint" />
          </mxGeometry>
        </mxCell>
        <mxCell id="f0J4ps2NvKq0wRHhP7px-20" style="edgeStyle=orthogonalEdgeStyle;curved=1;rounded=0;orthogonalLoop=1;jettySize=auto;html=1;entryX=0.5;entryY=0;entryDx=0;entryDy=0;endArrow=block;endFill=1;exitX=0.5;exitY=1;exitDx=0;exitDy=0;" edge="1" parent="1" source="f0J4ps2NvKq0wRHhP7px-6" target="f0J4ps2NvKq0wRHhP7px-11">
          <mxGeometry relative="1" as="geometry">
            <mxPoint x="110" y="570" as="sourcePoint" />
            <mxPoint x="305" y="620" as="targetPoint" />
          </mxGeometry>
        </mxCell>
        <mxCell id="f0J4ps2NvKq0wRHhP7px-21" style="edgeStyle=orthogonalEdgeStyle;curved=1;rounded=0;orthogonalLoop=1;jettySize=auto;html=1;exitX=0.5;exitY=1;exitDx=0;exitDy=0;entryX=0.458;entryY=-0.044;entryDx=0;entryDy=0;entryPerimeter=0;endArrow=block;endFill=1;exitPerimeter=0;" edge="1" parent="1" source="f0J4ps2NvKq0wRHhP7px-1" target="f0J4ps2NvKq0wRHhP7px-2">
          <mxGeometry relative="1" as="geometry">
            <mxPoint x="201" y="340" as="sourcePoint" />
            <mxPoint x="357" y="395" as="targetPoint" />
          </mxGeometry>
        </mxCell>
      </root>
    </mxGraphModel>
  </diagram>
</mxfile>
